<?xml version="1.0" encoding="utf-8"?>
<!-- Generator: Adobe Illustrator 21.0.0, SVG Export Plug-In . SVG Version: 6.00 Build 0)  -->
<svg version="1.1" id="Ebene_1" xmlns:serif="http://www.serif.com/"
	 xmlns="http://www.w3.org/2000/svg" xmlns:xlink="http://www.w3.org/1999/xlink" x="0px" y="0px" viewBox="0 0 612 612"
	 style="enable-background:new 0 0 612 612;" xml:space="preserve">
<path d="M459,0H153C68.6,0,0,68.6,0,153v306c0,84.4,68.5,153,153,153h306c84.4,0,153-68.6,153-153V153C612,68.6,543.4,0,459,0z
	 M322.1,257.7c0,35.6-28.8,64.4-64.4,64.4v128.7c0,8.9-7.2,16.1-16.1,16.1c-8.9,0-16.1-7.2-16.1-16.1V322.1
	c-35.6,0-64.4-28.8-64.4-64.4v-96.5c0-8.9,7.2-16.1,16.1-16.1s16.1,7.2,16.1,16.1v96.5h32.2v-96.5c0-8.9,7.2-16.1,16.1-16.1
	c8.9,0,16.1,7.2,16.1,16.1v96.5h32.2v-96.5c0-8.9,7.2-16.1,16.1-16.1s16.1,7.2,16.1,16.1V257.7z M450.8,450.8
	c0,8.9-7.2,16.1-16.1,16.1c-8.9,0-16.1-7.2-16.1-16.1V338.2h-16.1c-17.7,0-32.2-14.5-32.2-32.2v-96.5c0-24,25.7-53.4,60.5-62
	c10.1-2.4,20,5.3,20,15.8V450.8z"/>
</svg>
