<?xml version="1.0" encoding="UTF-8" standalone="no"?>
<!DOCTYPE svg PUBLIC "-//W3C//DTD SVG 1.1//EN" "http://www.w3.org/Graphics/SVG/1.1/DTD/svg11.dtd">
<svg width="100%" height="100%" viewBox="0 0 500 500" version="1.1" xmlns="http://www.w3.org/2000/svg" xmlns:xlink="http://www.w3.org/1999/xlink" xml:space="preserve" xmlns:serif="http://www.serif.com/" style="fill-rule:evenodd;clip-rule:evenodd;stroke-linecap:round;stroke-miterlimit:2;">
    <g transform="matrix(1,0,0,1,-3562.27,4.44089e-16)">
        <g transform="matrix(1.0009,0,0,1.0009,3028.58,-1.16104)">
            <g id="VERSION-3" serif:id="VERSION 3">
                <rect id="Hair-1" serif:id="Hair 1" x="533.21" y="1.16" width="499.502" height="499.502" style="fill:none;"/>
                <g id="Hair-11" serif:id="Hair 1">
                    <g transform="matrix(0.999101,0,0,0.999101,-1890.99,0.272859)">
                        <path d="M2716.83,259.437C2716.3,267.455 2716,275.823 2719.14,283.177C2722.29,290.53 2729.93,296.477 2737.59,294.863C2743.77,293.558 2748.3,287.656 2749.78,281.348C2751.25,275.043 2750.18,268.402 2748.57,262.131C2746.57,254.318 2740.73,233.971 2730.74,233.191C2719.27,232.295 2717.36,251.511 2716.83,259.437Z" style="fill:rgb(76,175,80);fill-rule:nonzero;"/>
                        <path d="M2754.51,148.636C2765.05,134.675 2765.33,96.866 2757.9,79.696C2750.47,62.526 2736.35,51.866 2721.78,48.177C2684.68,38.783 2648.78,69.785 2620.89,103.848C2593,137.911 2566.68,177.945 2530.72,193.346" style="fill:none;stroke:rgb(76,175,80);stroke-width:18px;"/>
                        <path d="M2734.8,158.102C2732.85,140.858 2724.62,124.438 2712.11,112.786C2699.59,101.131 2682.89,94.346 2666.01,94.053" style="fill:none;stroke:rgb(76,175,80);stroke-width:18px;"/>
                        <path d="M2696.41,161.56C2687.05,148.055 2685.09,140.691 2671.84,131.246C2658.58,121.806 2642.24,119.877 2627.59,126.818" style="fill:none;stroke:rgb(76,175,80);stroke-width:18px;"/>
                        <path d="M2672.84,170.806C2666.24,158.123 2650.71,152.54 2636.8,154.093C2622.89,155.646 2610.28,162.976 2598.51,170.755C2586.74,178.535 2575.14,187.032 2561.82,191.426C2544.35,197.189 2524.6,195.186 2508.56,186.035" style="fill:none;stroke:rgb(76,175,80);stroke-width:18px;"/>
                        <path d="M2655.37,161.132C2644.75,181.602 2627.51,198.367 2607.03,208.121C2599.09,211.905 2590.12,215.131 2585.43,222.719C2581.1,229.701 2581.54,238.778 2583.72,246.748C2585.9,254.718 2589.62,262.184 2591.54,270.226C2593.12,276.85 2593.15,284.647 2588.57,289.582C2584,294.521 2573.86,293.162 2572.86,286.418" style="fill:none;stroke:rgb(76,175,80);stroke-width:18px;"/>
                    </g>
                </g>
            </g>
        </g>
        <g id="VERSION-1" serif:id="VERSION 1">
        </g>
    </g>
</svg>
