<?xml version="1.0" encoding="UTF-8" standalone="no"?>
<!DOCTYPE svg PUBLIC "-//W3C//DTD SVG 1.1//EN" "http://www.w3.org/Graphics/SVG/1.1/DTD/svg11.dtd">
<svg width="100%" height="100%" viewBox="0 0 500 500" version="1.1" xmlns="http://www.w3.org/2000/svg" xmlns:xlink="http://www.w3.org/1999/xlink" xml:space="preserve" xmlns:serif="http://www.serif.com/" style="fill-rule:evenodd;clip-rule:evenodd;stroke-linecap:round;stroke-miterlimit:10;">
    <g transform="matrix(1,0,0,1,-3562.27,-1132.85)">
        <g transform="matrix(1.0009,0,0,1.0009,3028.58,1131.69)">
            <g id="VERSION-3" serif:id="VERSION 3">
                <rect id="Hair-3" serif:id="Hair 3" x="533.21" y="1.16" width="499.502" height="499.502" style="fill:none;"/>
                <clipPath id="_clip1">
                    <rect id="Hair-31" serif:id="Hair 3" x="533.21" y="1.16" width="499.502" height="499.502"/>
                </clipPath>
                <g clip-path="url(#_clip1)">
                    <g transform="matrix(0.999101,0,0,0.999101,-1890.99,0.272859)">
                        <path d="M2716.83,259.437C2716.3,267.455 2716,275.823 2719.14,283.177C2722.29,290.53 2729.93,296.477 2737.59,294.863C2743.77,293.558 2748.3,287.656 2749.78,281.348C2751.25,275.043 2750.18,268.402 2748.57,262.131C2746.57,254.318 2740.73,233.971 2730.74,233.191C2719.27,232.295 2717.36,251.511 2716.83,259.437Z" style="fill:rgb(76,175,80);fill-rule:nonzero;"/>
                    </g>
                    <g transform="matrix(3.16946,0,0,2.83932,706.635,12.9838)">
                        <path d="M0,86.634C-1.149,81.893 -2.707,72.158 -3.925,67.289C-4.888,63.444 -6.05,59.193 -4.202,55.685C-2.546,52.541 1.026,51.004 4.331,49.698C17.4,44.536 48.463,38.844 56.322,51.562C65.176,65.89 58.651,45.838 59.95,43.035C61.283,40.159 64.871,37.738 64.318,34.308C63.766,30.879 58.797,30.347 57.43,27.395C54.901,21.935 57.572,7.207 49.145,1.55C45.725,-0.746 42.251,-1.742 38.194,-1.027C34.138,-0.313 31.015,5.293 27.501,5.723C23.987,6.153 20.622,1.138 17.112,1.55C13.601,1.962 12.222,7.648 8.692,8.135C4.173,8.757 -3.644,4.342 -10.003,5.285C-16.362,6.228 -22.49,8.451 -24.815,14.444C-27.141,20.437 -19.257,27.754 -20.7,30.616C-22.143,33.479 -29.336,29.764 -33.472,31.617C-37.609,33.471 -40.862,36.804 -41.197,41.325C-41.533,45.845 -34.905,50.158 -34.51,53.726C-34.144,57.036 -40.582,59.218 -38.826,62.734C-37.071,66.25 -32.75,67.867 -28.83,67.599C-24.908,67.332 -19.915,60.987 -17.75,63.809C-15.586,66.631 -16.716,82.783 -15.841,84.53C-14.404,87.397 0.737,89.678 0,86.634Z" style="fill:none;fill-rule:nonzero;stroke:rgb(76,175,80);stroke-width:5.98px;"/>
                    </g>
                </g>
            </g>
        </g>
        <g id="VERSION-1" serif:id="VERSION 1">
        </g>
    </g>
</svg>
