<?xml version="1.0" encoding="UTF-8" standalone="no"?>
<!DOCTYPE svg PUBLIC "-//W3C//DTD SVG 1.1//EN" "http://www.w3.org/Graphics/SVG/1.1/DTD/svg11.dtd">
<svg width="100%" height="100%" viewBox="0 0 500 500" version="1.1" xmlns="http://www.w3.org/2000/svg" xmlns:xlink="http://www.w3.org/1999/xlink" xml:space="preserve" xmlns:serif="http://www.serif.com/" style="fill-rule:evenodd;clip-rule:evenodd;stroke-linecap:round;stroke-miterlimit:10;">
    <g transform="matrix(1,0,0,1,-3562.27,-1697.44)">
        <g transform="matrix(1.0009,0,0,1.0009,3028.58,1696.28)">
            <g id="VERSION-3" serif:id="VERSION 3">
                <rect id="Hair-4" serif:id="Hair 4" x="533.21" y="1.16" width="499.502" height="499.502" style="fill:none;"/>
                <clipPath id="_clip1">
                    <rect id="Hair-41" serif:id="Hair 4" x="533.21" y="1.16" width="499.502" height="499.502"/>
                </clipPath>
                <g clip-path="url(#_clip1)">
                    <g transform="matrix(0.999101,0,0,0.999101,-1903.52,-13.7895)">
                        <path d="M2716.83,259.437C2716.3,267.455 2716,275.823 2719.14,283.177C2722.29,290.53 2729.93,296.477 2737.59,294.863C2743.77,293.558 2748.3,287.656 2749.78,281.348C2751.25,275.043 2750.18,268.402 2748.57,262.131C2746.57,254.318 2740.73,233.971 2730.74,233.191C2719.27,232.295 2717.36,251.511 2716.83,259.437Z" style="fill:rgb(76,175,80);fill-rule:nonzero;"/>
                    </g>
                    <g transform="matrix(3.14728,0,0,3.14728,671.096,350.054)">
                        <path d="M0,-32.681C19.516,-42.794 30.572,-63.272 35.149,-82.444C35.431,-83.626 34.428,-84.714 33.236,-84.474C26.153,-83.043 19.068,-81.452 12.464,-78.527C5.057,-75.245 -3.444,-68.352 -7.324,-61.191C-10.228,-55.83 -11.872,-53.074 -13.326,-45.069C-16.854,-25.656 -27.935,-9.233 -31.279,17.288C-31.933,22.473 -31.686,28.215 -30.486,33.301C-29.286,38.386 -22.812,42.868 -17.666,43.488" style="fill:none;fill-rule:nonzero;stroke:rgb(76,175,80);stroke-width:5.71px;"/>
                    </g>
                    <g transform="matrix(3.14728,0,0,3.14728,881.821,67.5467)">
                        <path d="M0,28.009C-0.373,20.781 -4.684,13.768 -11.461,9.363C-16.665,5.98 -36.953,0 -30.083,11.556C-25.316,19.572 -9.482,25.577 0,28.009Z" style="fill:none;fill-rule:nonzero;stroke:rgb(76,175,80);stroke-width:5.71px;"/>
                    </g>
                    <g transform="matrix(3.19804,0,0,3.19804,925.423,582.254)">
                        <path d="M0,-67.825C3.953,-59.911 11.657,-53.336 12.315,-44.513C12.757,-38.591 12.439,-34.392 6.172,-29.81" style="fill:none;fill-rule:nonzero;stroke:rgb(76,175,80);stroke-width:5.62px;"/>
                    </g>
                    <g transform="matrix(3.44826,-0.295073,0.295073,3.44826,797.726,284.902)">
                        <path d="M0,-23.169C1.532,-20.195 0.242,-11.685 -0.26,-8.378C-0.802,-4.81 -1.982,-1.146 -4.646,1.29C-7.968,4.327 -13.145,4.812 -17.311,3.111C-21.478,1.41 -24.669,-2.187 -26.633,-6.235C-28.189,-9.446 -31.156,-16.583 -29.015,-19.619C-26.973,-22.513 -2.479,-27.981 0,-23.169Z" style="fill:none;fill-rule:nonzero;stroke:rgb(76,175,80);stroke-width:3.46px;"/>
                    </g>
                    <g transform="matrix(3.44826,-0.295073,0.295073,3.44826,950.402,266.265)">
                        <path d="M0,-19.972C0.627,-16.853 -2.628,-8.903 -3.895,-5.815C-5.261,-2.483 -7.22,0.832 -10.195,2.71C-13.905,5.05 -18.635,4.62 -21.924,2.265C-25.213,-0.089 -27.164,-4.095 -27.91,-8.324C-28.5,-11.676 -29.375,-19.043 -26.716,-21.587C-24.182,-24.012 -1.016,-25.022 0,-19.972Z" style="fill:none;fill-rule:nonzero;stroke:rgb(76,175,80);stroke-width:3.46px;"/>
                    </g>
                    <g transform="matrix(3.39919,-0.65046,-0.65046,-3.39919,796.642,230.151)">
                        <path d="M-0.267,0.802C3.769,5.605 10.97,5.606 15.005,0.802" style="fill:none;fill-rule:nonzero;stroke:rgb(76,175,80);stroke-width:3.46px;"/>
                    </g>
                </g>
            </g>
        </g>
        <g id="VERSION-1" serif:id="VERSION 1">
        </g>
    </g>
</svg>
