<?xml version="1.0" encoding="UTF-8" standalone="no"?>
<!DOCTYPE svg PUBLIC "-//W3C//DTD SVG 1.1//EN" "http://www.w3.org/Graphics/SVG/1.1/DTD/svg11.dtd">
<svg width="100%" height="100%" viewBox="0 0 500 500" version="1.1" xmlns="http://www.w3.org/2000/svg" xmlns:xlink="http://www.w3.org/1999/xlink" xml:space="preserve" xmlns:serif="http://www.serif.com/" style="fill-rule:evenodd;clip-rule:evenodd;stroke-linecap:round;stroke-miterlimit:10;">
    <g transform="matrix(1,0,0,1,-3561.18,-2250.58)">
        <g transform="matrix(1.0009,0,0,1.0009,3027.49,2249.42)">
            <g id="VERSION-3" serif:id="VERSION 3">
                <rect id="Hair-5" serif:id="Hair 5" x="533.21" y="1.16" width="499.502" height="499.502" style="fill:none;"/>
                <clipPath id="_clip1">
                    <rect id="Hair-51" serif:id="Hair 5" x="533.21" y="1.16" width="499.502" height="499.502"/>
                </clipPath>
                <g clip-path="url(#_clip1)">
                    <g transform="matrix(0.999101,0,0,0.999101,-1890.99,0.272859)">
                        <path d="M2716.83,259.437C2716.3,267.455 2716,275.823 2719.14,283.177C2722.29,290.53 2729.93,296.477 2737.59,294.863C2743.77,293.558 2748.3,287.656 2749.78,281.348C2751.25,275.043 2750.18,268.402 2748.57,262.131C2746.57,254.318 2740.73,233.971 2730.74,233.191C2719.27,232.295 2717.36,251.511 2716.83,259.437Z" style="fill:rgb(76,175,80);fill-rule:nonzero;"/>
                    </g>
                    <g transform="matrix(0,2.71949,2.71949,0,693.196,372.603)">
                        <path d="M-4.374,-4.374L4.374,-4.374" style="fill:none;fill-rule:nonzero;stroke:rgb(76,175,80);stroke-width:4.41px;"/>
                    </g>
                    <g transform="matrix(3.6356,0,0,3.6356,684.964,406.407)">
                        <path d="M0,-5.255C1.679,-4.237 1.76,-1.409 0.143,-0.297C-1.475,0.815 -4.087,-0.275 -4.435,-2.206C-4.783,-4.139 -2.715,-6.07 -0.811,-5.593" style="fill:none;fill-rule:nonzero;stroke:rgb(76,175,80);stroke-width:3.3px;"/>
                    </g>
                    <g transform="matrix(3.1369,0,0,3.1369,688.334,360.984)">
                        <path d="M0,-66.297C0.937,-70.49 2.229,-76.77 4.533,-80.397C6.836,-84.025 10.77,-86.922 15.064,-86.783C19.015,-86.655 22.509,-84.066 26.434,-83.596C34.232,-82.663 41.525,-90.19 49.151,-88.31C55.499,-86.746 58.682,-79.469 64.455,-76.4C71.766,-72.511 82.903,-75.363 87.177,-68.271C91.29,-61.444 84.296,-52.375 87.012,-44.883C89.201,-38.849 97.116,-35.676 97.751,-29.288C98.458,-22.193 101.475,-17.745 100.749,-10.651C100.429,-7.531 101.75,-4.514 102.746,-1.54C103.741,1.435 104.392,4.852 102.861,7.589C101.33,10.326 95.224,6.201 94.091,8.533C92.123,12.588 89.95,18.385 81.793,17.369C78.773,16.993 77.806,23.529 74.8,23.24C71.795,22.951 69.178,21.166 66.405,19.971C63.631,18.776 68.794,15.486 68.998,11.283" style="fill:none;fill-rule:nonzero;stroke:rgb(76,175,80);stroke-width:5.73px;"/>
                    </g>
                    <g transform="matrix(3.1369,0,0,3.1369,688.334,441.345)">
                        <path d="M0,-91.915C-6.74,-94.269 -15.75,-89.097 -14.699,-82.034C-14.336,-79.594 -13.113,-77.123 -13.859,-74.77C-15.45,-69.76 -23.959,-70.262 -25.905,-65.377C-27.461,-61.473 -23.559,-57.162 -24.527,-53.072C-25.965,-46.996 -36.408,-46.542 -37.39,-40.377C-38.208,-35.238 -31.607,-32.037 -30.069,-27.067C-28.203,-21.035 -33.982,-13.253 -29.504,-8.803C-26.444,-5.762 -21.295,-7.37 -17.073,-6.48C-12.631,-5.543 -9.372,-1.82 -5.34,0.267C-1.309,2.354 3.327,-0.713 4.108,-5.186" style="fill:none;fill-rule:nonzero;stroke:rgb(76,175,80);stroke-width:5.73px;"/>
                    </g>
                    <g transform="matrix(3.1369,0,0,3.1369,691.446,215.799)">
                        <path d="M0,-21.014C0.354,-17.205 4.638,-14.853 8.461,-14.934C12.286,-15.016 15.84,-16.774 19.488,-17.921C23.137,-19.07 27.426,-19.52 30.522,-17.274C33.689,-14.975 35.283,-10.129 39.179,-9.767C43.095,-9.403 45.732,-14.005 49.571,-14.862C54.094,-15.871 57.841,-11.529 60.582,-7.791C63.321,-4.053 67.629,0 71.926,-1.736" style="fill:none;fill-rule:nonzero;stroke:rgb(76,175,80);stroke-width:5.73px;"/>
                    </g>
                    <g transform="matrix(3.1369,0,0,3.1369,688.334,275.027)">
                        <path d="M0,-38.895C1.486,-36.284 2.986,-33.637 3.701,-30.795C4.417,-27.953 4.271,-24.846 2.608,-22.399C1.724,-21.099 0.415,-19.96 0.128,-18.45C-0.33,-16.03 1.962,-13.902 3.025,-11.6C4.131,-9.207 3.847,-6.369 2.289,-4.249C0.731,-2.131 0.322,-0.012 -2.554,0" style="fill:none;fill-rule:nonzero;stroke:rgb(76,175,80);stroke-width:5.73px;"/>
                    </g>
                </g>
            </g>
        </g>
        <g id="VERSION-1" serif:id="VERSION 1">
        </g>
    </g>
</svg>
