<?xml version="1.0" encoding="UTF-8" standalone="no"?>
<!DOCTYPE svg PUBLIC "-//W3C//DTD SVG 1.1//EN" "http://www.w3.org/Graphics/SVG/1.1/DTD/svg11.dtd">
<svg width="100%" height="100%" viewBox="0 0 500 500" version="1.1" xmlns="http://www.w3.org/2000/svg" xmlns:xlink="http://www.w3.org/1999/xlink" xml:space="preserve" xmlns:serif="http://www.serif.com/" style="fill-rule:evenodd;clip-rule:evenodd;stroke-linejoin:round;stroke-miterlimit:2;">
    <g transform="matrix(1,0,0,1,-5217.26,-4.1225)">
        <g transform="matrix(1.0009,0,0,1.0009,4683.57,2.96146)">
            <g id="VERSION-3" serif:id="VERSION 3">
                <rect id="Eins_3" x="533.21" y="1.16" width="499.502" height="499.502" style="fill:none;"/>
                <clipPath id="_clip1">
                    <rect id="Eins_31" serif:id="Eins_3" x="533.21" y="1.16" width="499.502" height="499.502"/>
                </clipPath>
                <g clip-path="url(#_clip1)">
                    <g transform="matrix(0.814504,0,0,0.837593,146.553,20.1604)">
                        <g transform="matrix(4.34081,0,0,4.34081,586.122,127.528)">
                            <path d="M19.634,71.58C13.964,74.223 6.607,71.987 2.004,67.752C-2.599,63.517 -5.076,53.61 -1.169,48.725C2.737,43.839 10.27,41.416 14.025,46.418C12.966,40.459 8.913,24.54 10.889,15.981C14.024,2.404 46.61,-9.185 63.178,-0.012C74.565,6.293 84.405,22.111 86.011,39.933C86.441,44.698 86.282,49.605 85.407,54.512C84.901,57.349 84.173,60.168 83.157,62.866C82.069,65.755 80.651,68.505 78.823,70.991C75.288,75.799 68.02,80.94 62.147,82.001C62.147,82.001 51.227,85.444 41.34,83.818C31.631,82.221 23.142,74.533 20.413,71.986C19.932,71.537 19.634,71.58 19.634,71.58" style="fill:none;fill-rule:nonzero;stroke:black;stroke-width:5.01px;"/>
                        </g>
                        <g transform="matrix(4.34081,0,0,4.34081,980.187,386.473)">
                            <path d="M0,-19.817C2.242,-18.852 3.778,-16.612 4.296,-14.227C4.813,-11.841 4.415,-9.333 3.605,-7.03C2.35,-3.462 0.097,-0.249 -2.831,2.147C-4.135,3.215 -8.527,4.651 -7.436,3.389C-5.355,0.98 -3.809,-16.213 -4.824,-19.836C-5.214,-21.231 -1.951,-20.657 0,-19.817" style="fill:none;fill-rule:nonzero;stroke:black;stroke-width:5.01px;"/>
                        </g>
                        <g transform="matrix(4.34081,0,0,4.34081,834.615,301.09)">
                            <path d="M0,-2.906C-0.161,-0.552 -0.252,1.905 0.698,4.064C1.647,6.223 3.956,7.969 6.267,7.495C8.132,7.112 9.501,5.379 9.947,3.527C10.393,1.676 10.069,-0.274 9.583,-2.115C8.977,-4.409 7.216,-10.383 4.2,-10.612C0.735,-10.875 0.159,-5.233 0,-2.906" style="fill:rgb(76,175,80);fill-rule:nonzero;"/>
                        </g>
                        <g transform="matrix(-0.409121,-5.8126,-5.8126,0.409121,894.147,230.708)">
                            <path d="M-2.259,-2.424C-4.523,-2.424 -6.359,-1.411 -6.36,-0.16C-6.36,1.091 -4.524,2.105 -2.259,2.105C0.005,2.105 1.841,1.092 1.842,-0.159C1.842,-1.41 0.006,-2.424 -2.259,-2.424" style="fill-rule:nonzero;"/>
                        </g>
                        <g transform="matrix(-0.409121,-5.8126,-5.8126,0.409121,754.471,249.145)">
                            <path d="M-2.259,-2.424C-4.523,-2.424 -6.359,-1.411 -6.36,-0.16C-6.36,1.091 -4.524,2.105 -2.259,2.105C0.005,2.105 1.841,1.092 1.842,-0.159C1.842,-1.41 0.006,-2.424 -2.259,-2.424" style="fill-rule:nonzero;"/>
                        </g>
                        <g transform="matrix(4.14696,1.28272,1.28272,-4.14696,768.807,353.949)">
                            <path d="M-5.615,-5.567C-5.615,-5.567 6.782,-13.158 22.609,-4.53" style="fill:none;fill-rule:nonzero;stroke:black;stroke-width:5.05px;stroke-linecap:round;stroke-linejoin:miter;stroke-miterlimit:10;"/>
                        </g>
                        <g transform="matrix(4.34081,0,0,4.34081,602.079,364.638)">
                            <path d="M0,2.454C-0.271,0.065 1.818,-2.16 4.186,-2.577C6.553,-2.994 8.988,-1.928 10.776,-0.322C12.565,1.284 13.823,3.383 15.054,5.448" style="fill:none;fill-rule:nonzero;stroke:black;stroke-width:3.34px;stroke-linecap:round;stroke-linejoin:miter;stroke-miterlimit:10;"/>
                        </g>
                        <g transform="matrix(3.12073,-3.01723,-3.01723,-3.12073,644.653,409.52)">
                            <path d="M-1.226,3.032C1.564,4.043 4.709,4.043 7.498,3.032" style="fill:none;fill-rule:nonzero;stroke:black;stroke-width:3.3px;stroke-linecap:round;stroke-linejoin:miter;stroke-miterlimit:10;"/>
                        </g>
                        <g transform="matrix(4.11594,-1.379,-1.379,-4.11594,889.956,100.778)">
                            <path d="M-4.704,-9.718C-0.385,-6.842 3.223,3.656 2.697,9.149C2.17,14.642 -0.877,18.964 -4.704,21.388C-14.449,27.562 -27.617,22.375 -38.78,15.567C-49.942,8.759 -61.209,0.138 -72.942,-0.7" style="fill:none;fill-rule:nonzero;stroke:rgb(76,175,80);stroke-width:4.97px;stroke-linecap:round;stroke-linejoin:miter;stroke-miterlimit:10;"/>
                        </g>
                        <g transform="matrix(4.34081,0,0,4.34081,858.165,77.6992)">
                            <path d="M0,18.805C-0.59,13.742 -3.073,8.921 -6.852,5.5C-10.63,2.078 -15.673,0.086 -20.77,0" style="fill:none;fill-rule:nonzero;stroke:rgb(76,175,80);stroke-width:5.01px;stroke-linecap:round;stroke-linejoin:miter;stroke-miterlimit:10;"/>
                        </g>
                        <g transform="matrix(4.34081,0,0,4.34081,811.406,105.261)">
                            <path d="M-0.82,13.471C-3.644,9.506 -4.238,7.343 -8.239,4.57C-12.24,1.798 -17.176,1.232 -21.597,3.27" style="fill:none;fill-rule:nonzero;stroke:rgb(76,175,80);stroke-width:5.01px;stroke-linecap:round;stroke-linejoin:miter;stroke-miterlimit:10;"/>
                        </g>
                        <g transform="matrix(0.00290122,-4.34081,-4.34081,-0.00290122,664.209,73.0355)">
                            <path d="M-23.592,-25.991C-19.869,-23.994 -18.233,-19.305 -18.692,-15.106C-19.151,-10.908 -21.306,-7.099 -23.592,-3.548C-25.878,0.004 -28.376,3.504 -29.668,7.526C-31.364,12.798 -30.78,18.762 -28.096,23.606" style="fill:none;fill-rule:nonzero;stroke:rgb(76,175,80);stroke-width:5.01px;stroke-linecap:round;stroke-linejoin:miter;stroke-miterlimit:10;"/>
                        </g>
                        <g transform="matrix(4.34081,0,0,4.34081,754.062,333.189)">
                            <path d="M0,-39.163C-3.207,-33.153 -8.413,-28.231 -14.594,-25.367C-16.992,-24.256 -19.699,-23.309 -21.118,-21.081C-22.424,-19.031 -22.291,-16.366 -21.633,-14.026C-20.975,-11.686 -19.85,-9.494 -19.271,-7.133C-18.794,-5.188 -18.786,-2.899 -20.167,-1.45C-21.549,0 -24.611,-0.399 -24.913,-2.379" style="fill:none;fill-rule:nonzero;stroke:rgb(76,175,80);stroke-width:5.01px;stroke-linecap:round;stroke-linejoin:miter;stroke-miterlimit:10;"/>
                        </g>
                    </g>
                </g>
            </g>
        </g>
        <g id="VERSION-2" serif:id="VERSION 2">
        </g>
        <g id="VERSION-1" serif:id="VERSION 1">
        </g>
    </g>
</svg>
