<?xml version="1.0" encoding="UTF-8" standalone="no"?>
<!DOCTYPE svg PUBLIC "-//W3C//DTD SVG 1.1//EN" "http://www.w3.org/Graphics/SVG/1.1/DTD/svg11.dtd">
<svg width="100%" height="100%" viewBox="0 0 500 500" version="1.1" xmlns="http://www.w3.org/2000/svg" xmlns:xlink="http://www.w3.org/1999/xlink" xml:space="preserve" xmlns:serif="http://www.serif.com/" style="fill-rule:evenodd;clip-rule:evenodd;stroke-linecap:round;stroke-miterlimit:10;">
    <g transform="matrix(1,0,0,1,-2116.96,-48.3923)">
        <g id="Drei" transform="matrix(1.0009,0,0,1.0009,1583.27,47.2313)">
            <rect x="533.21" y="1.16" width="499.502" height="499.502" style="fill:none;"/>
            <clipPath id="_clip1">
                <rect x="533.21" y="1.16" width="499.502" height="499.502"/>
            </clipPath>
            <g clip-path="url(#_clip1)">
                <g transform="matrix(2.65506,0,0,2.65506,679.918,118.795)">
                    <path d="M0,132.585C8.303,120.549 19.271,106.56 22.954,103.402C21.275,90.46 20.893,78.146 19.634,71.58C13.965,74.223 6.608,71.987 2.005,67.752C-2.599,63.517 -5.075,53.61 -1.169,48.725C2.737,43.839 10.27,41.416 14.025,46.418C12.966,40.459 8.913,24.54 10.89,15.981C14.024,2.404 46.61,-9.185 63.179,-0.012C77.609,7.978 89.556,31.249 85.407,54.512C84.359,60.387 82.358,66.184 78.823,70.991C75.288,75.799 68.02,80.94 62.147,82.001L63.454,104.137C74.312,112.006 83.912,121.604 91.807,132.442C94.631,136.32 91.854,141.77 87.058,141.77L4.838,141.77C0.116,141.77 -2.681,136.471 0,132.585" style="fill:rgb(76,175,64);fill-rule:nonzero;"/>
                </g>
                <g transform="matrix(2.65506,0,0,2.65506,920.948,277.179)">
                    <path d="M0,-19.817C2.242,-18.852 3.778,-16.612 4.296,-14.227C4.813,-11.841 4.415,-9.333 3.605,-7.03C2.35,-3.462 0.098,-0.249 -2.83,2.147C-4.135,3.215 -5.934,4.154 -7.436,3.389C-8.635,2.778 -9.113,1.329 -9.377,0.01C-10.438,-5.298 -9.648,-23.971 0,-19.817" style="fill:rgb(76,175,64);fill-rule:nonzero;"/>
                </g>
                <g transform="matrix(2.65506,0,0,2.65506,828.135,214.859)">
                    <path d="M0,-2.906C-0.161,-0.552 -0.252,1.905 0.697,4.064C1.647,6.223 3.956,7.969 6.267,7.495C8.132,7.112 9.501,5.379 9.947,3.527C10.393,1.676 10.069,-0.274 9.582,-2.115C8.977,-4.409 7.216,-10.383 4.2,-10.612C0.735,-10.875 0.158,-5.233 0,-2.906" style="fill-opacity:0.47;fill-rule:nonzero;"/>
                </g>
                <g transform="matrix(-0.549304,-2.59761,-2.59761,0.549304,779.135,198.551)">
                    <path d="M-2.216,-2.733C-4.481,-2.733 -6.317,-1.719 -6.316,-0.468C-6.317,0.782 -4.48,1.796 -2.216,1.796C0.049,1.796 1.885,0.782 1.884,-0.469C1.884,-1.72 0.049,-2.733 -2.216,-2.733" style="fill-rule:nonzero;"/>
                </g>
                <g transform="matrix(-0.186415,-2.64851,-2.64851,0.186415,869.774,189.767)">
                    <path d="M-2.259,-2.424C-4.523,-2.424 -6.359,-1.411 -6.36,-0.16C-6.36,1.091 -4.524,2.104 -2.259,2.105C0.005,2.105 1.841,1.092 1.842,-0.159C1.842,-1.41 0.006,-2.424 -2.259,-2.424" style="fill-rule:nonzero;"/>
                </g>
                <g transform="matrix(2.53649,0.784576,0.784576,-2.53649,791.658,257.286)">
                    <path d="M-0.687,-2.975C-0.687,-2.975 6.367,-8.663 19.202,-2.975" style="fill:none;fill-rule:nonzero;stroke:black;stroke-width:1.51px;"/>
                </g>
                <g transform="matrix(2.65506,0,0,2.65506,684.533,259.589)">
                    <path d="M0,2.454C-0.271,0.065 1.818,-2.16 4.186,-2.577C6.553,-2.994 8.987,-1.928 10.776,-0.322C12.565,1.284 13.823,3.383 15.053,5.448" style="fill:none;fill-rule:nonzero;stroke:black;stroke-width:1.51px;"/>
                </g>
                <g transform="matrix(1.90879,-1.84549,-1.84549,-1.90879,710.572,287.042)">
                    <path d="M-1.226,3.032C1.565,4.042 4.709,4.043 7.498,3.032" style="fill:none;fill-rule:nonzero;stroke:black;stroke-width:1.51px;"/>
                </g>
                <g transform="matrix(2.547,0.749736,0.749736,-2.547,749.843,296.912)">
                    <path d="M-1.343,-5.652C10.573,-12.635 24.102,-13.764 38.136,-5.652" style="fill:none;fill-rule:nonzero;stroke:black;stroke-width:1.51px;"/>
                </g>
                <g transform="matrix(-0.325053,2.63509,2.63509,0.325053,933.435,259.782)">
                    <path d="M-11.57,-10.83C-3.305,-9.202 1.433,-8.972 9.65,-10.83" style="fill:none;fill-rule:nonzero;stroke:black;stroke-width:1.51px;"/>
                </g>
                <g transform="matrix(2.65506,0,0,2.65506,731.64,13.294)">
                    <path d="M0,86.634C-1.149,81.893 -2.707,72.158 -3.925,67.289C-4.888,63.444 -6.05,59.193 -4.202,55.685C-2.546,52.541 1.026,51.004 4.331,49.698C17.4,44.536 48.463,38.844 56.322,51.562C65.176,65.89 60.286,43.852 59.95,43.035C63.027,41.422 64.871,37.738 64.318,34.308C63.766,30.879 60.857,27.96 57.43,27.395C60.058,17.592 55.836,6.339 47.409,0.682C43.989,-1.614 39.792,-3.044 35.735,-2.329C31.679,-1.615 27.94,1.628 27.501,5.723C26.159,2.453 22.502,0.3 18.992,0.712C15.481,1.124 12.423,4.065 11.874,7.556C6.377,4.222 -0.173,2.317 -6.532,3.26C-12.891,4.203 -18.933,8.306 -21.258,14.299C-23.584,20.292 -21.483,27.962 -15.927,31.195C-20.396,30.433 -25.142,30.487 -29.278,32.34C-33.415,34.194 -36.812,38.106 -37.147,42.627C-37.483,47.147 -34.109,51.899 -29.593,52.28C-33.512,52.571 -35.665,57.772 -33.909,61.288C-32.154,64.804 -27.833,66.421 -23.913,66.153C-19.991,65.886 -16.354,64.109 -12.833,62.363C-14.603,63.241 -11.799,81.337 -10.924,83.084C-9.487,85.951 0.737,89.678 0,86.634Z" style="fill:none;fill-rule:nonzero;stroke:black;stroke-width:1.51px;"/>
                </g>
                <g transform="matrix(2.65506,0,0,2.65506,653.069,143.709)">
                    <path d="M0,3.161C3.945,0 8.869,1.208 13.532,3.161" style="fill:none;fill-rule:nonzero;stroke:black;stroke-width:1.51px;"/>
                </g>
                <g transform="matrix(2.65506,0,0,2.65506,809.267,117.532)">
                    <path d="M0,-4.086C2.479,0.217 7.647,2.804 12.579,2.211C17.51,1.618 21.917,-2.122 23.305,-6.89" style="fill:none;fill-rule:nonzero;stroke:black;stroke-width:1.51px;"/>
                </g>
                <g transform="matrix(2.3703,1.19625,1.19625,-2.3703,868.12,110.174)">
                    <path d="M-0.295,-1.239C1.431,-2.004 3.48,-2.004 5.207,-1.239" style="fill:none;fill-rule:nonzero;stroke:black;stroke-width:1.51px;"/>
                </g>
                <g transform="matrix(2.65506,0,0,2.65506,737.069,419.72)">
                    <path d="M0,-8.557C5.527,-3.179 14.129,-1.384 21.81,-0.692C29.49,0 39.659,-1.337 43.627,-7.95" style="fill:none;fill-rule:nonzero;stroke:black;stroke-width:1.51px;"/>
                </g>
                <g transform="matrix(2.65506,0,0,2.65506,796.225,428.636)">
                    <path d="M0,-3.975C0.486,-1.386 3.341,0.498 5.913,-0.073C8.485,-0.645 10.41,-1.92 9.754,-4.473" style="fill:none;fill-rule:nonzero;stroke:black;stroke-width:1.51px;"/>
                </g>
            </g>
        </g>
    </g>
</svg>
