<?xml version="1.0" encoding="UTF-8" standalone="no"?>
<!DOCTYPE svg PUBLIC "-//W3C//DTD SVG 1.1//EN" "http://www.w3.org/Graphics/SVG/1.1/DTD/svg11.dtd">
<svg width="100%" height="100%" viewBox="0 0 500 500" version="1.1" xmlns="http://www.w3.org/2000/svg" xmlns:xlink="http://www.w3.org/1999/xlink" xml:space="preserve" xmlns:serif="http://www.serif.com/" style="fill-rule:evenodd;clip-rule:evenodd;stroke-linecap:round;stroke-miterlimit:10;">
    <g transform="matrix(1,0,0,1,-2070.29,-630.12)">
        <g id="Sechs" transform="matrix(1.0009,0,0,1.0009,1536.6,628.959)">
            <rect x="533.21" y="1.16" width="499.502" height="499.502" style="fill:none;"/>
            <clipPath id="_clip1">
                <rect x="533.21" y="1.16" width="499.502" height="499.502"/>
            </clipPath>
            <g clip-path="url(#_clip1)">
                <g transform="matrix(2.92378,0,0,2.92378,648.171,81.2651)">
                    <path d="M0,132.584C8.303,120.549 19.271,106.559 22.953,103.401C21.275,90.46 20.893,78.146 19.634,71.58C13.965,74.223 6.607,71.986 2.005,67.751C-2.599,63.517 -5.075,53.609 -1.169,48.725C2.737,43.839 10.27,41.415 14.025,46.417C13.676,40.865 8.913,24.539 10.889,15.98C14.024,2.403 46.61,-9.186 63.179,-0.013C77.609,7.978 89.555,31.248 85.406,54.512C84.359,60.387 82.357,66.183 78.822,70.991C75.288,75.799 68.02,80.939 62.147,82.001L63.454,104.137C74.313,112.005 83.912,121.604 91.806,132.442C94.63,136.32 91.854,141.77 87.058,141.77L4.838,141.77C0.116,141.77 -2.681,136.471 0,132.584" style="fill:rgb(76,175,64);fill-rule:nonzero;"/>
                </g>
                <g transform="matrix(2.92378,0,0,2.92378,913.596,255.677)">
                    <path d="M0,-19.817C2.242,-18.851 3.778,-16.613 4.296,-14.227C4.813,-11.841 4.415,-9.333 3.605,-7.03C2.35,-3.462 0.098,-0.249 -2.83,2.148C-4.135,3.215 -5.934,4.154 -7.436,3.389C-8.636,2.778 -9.113,1.329 -9.377,0.009C-10.438,-5.298 -9.648,-23.971 0,-19.817" style="fill:rgb(76,175,64);fill-rule:nonzero;"/>
                </g>
                <g transform="matrix(2.92378,0,0,2.92378,811.387,187.055)">
                    <path d="M0,-2.908C-0.16,-0.554 -0.252,1.903 0.698,4.062C1.648,6.221 3.956,7.968 6.268,7.493C8.133,7.111 9.502,5.377 9.947,3.526C10.394,1.674 10.07,-0.275 9.583,-2.117C8.977,-4.411 7.217,-10.384 4.201,-10.613C0.736,-10.876 0.159,-5.234 0,-2.908" style="fill-opacity:0.47;fill-rule:nonzero;"/>
                </g>
                <g transform="matrix(-0.60477,-2.86055,-2.86055,0.60477,757.431,169.09)">
                    <path d="M-2.216,-2.733C-4.481,-2.733 -6.317,-1.718 -6.316,-0.468C-6.316,0.783 -4.481,1.796 -2.216,1.796C0.048,1.796 1.884,0.783 1.884,-0.469C1.885,-1.719 0.049,-2.733 -2.216,-2.733" style="fill-rule:nonzero;"/>
                </g>
                <g transform="matrix(-0.205283,-2.91657,-2.91657,0.205283,857.246,159.417)">
                    <path d="M-2.259,-2.423C-4.524,-2.423 -6.359,-1.41 -6.36,-0.159C-6.36,1.092 -4.524,2.105 -2.259,2.106C0.005,2.106 1.841,1.093 1.842,-0.158C1.842,-1.409 0.006,-2.423 -2.259,-2.423" style="fill-rule:nonzero;"/>
                </g>
                <g transform="matrix(2.79316,0.864161,0.864161,-2.79316,771.222,233.77)">
                    <path d="M-0.687,-2.976C-0.687,-2.976 6.367,-8.663 19.201,-2.976" style="fill:none;fill-rule:nonzero;stroke:black;stroke-width:1.37px;"/>
                </g>
                <g transform="matrix(2.92378,0,0,2.92378,653.254,236.309)">
                    <path d="M0,2.453C-0.271,0.065 1.818,-2.16 4.186,-2.577C6.553,-2.994 8.987,-1.928 10.776,-0.322C12.564,1.283 13.822,3.383 15.053,5.447" style="fill:none;fill-rule:nonzero;stroke:black;stroke-width:1.37px;"/>
                </g>
                <g transform="matrix(2.10199,-2.03228,-2.03228,-2.10199,681.928,266.538)">
                    <path d="M-1.226,3.032C1.565,4.042 4.708,4.044 7.498,3.032" style="fill:none;fill-rule:nonzero;stroke:black;stroke-width:1.37px;"/>
                </g>
                <g transform="matrix(2.80479,0.825619,0.825619,-2.80479,725.172,277.408)">
                    <path d="M-1.343,-5.652C10.574,-12.634 24.102,-13.764 38.136,-5.652" style="fill:none;fill-rule:nonzero;stroke:black;stroke-width:1.37px;"/>
                </g>
                <g transform="matrix(-0.358072,2.90178,2.90178,0.358072,927.347,236.523)">
                    <path d="M-11.571,-10.831C-3.307,-9.202 1.433,-8.972 9.65,-10.831" style="fill:none;fill-rule:nonzero;stroke:black;stroke-width:1.37px;"/>
                </g>
                <g transform="matrix(2.92378,0,0,2.92378,699.766,12.4228)">
                    <path d="M0,33.027C4.787,36.459 12.385,33.594 17.783,31.242C23.183,28.889 28.371,25.547 34.246,25.132C42.307,24.564 51.405,33.371 57.551,34.784C66.17,36.765 72.896,23.936 70.865,15.329C64.941,19.575 56.515,17.713 50.301,13.905C44.086,10.098 38.984,4.605 32.547,1.19C23.564,-3.576 12.287,-3.738 3.171,0.767C-3.154,3.894 -8.599,9.549 -9.796,16.504C-10.993,23.457 -6.867,31.409 0,33.027" style="fill:none;fill-rule:nonzero;stroke:black;stroke-width:1.37px;"/>
                </g>
                <g transform="matrix(-0.38863,2.89784,2.89784,0.38863,838.175,-29.1844)">
                    <path d="M31.681,-33.921C27.405,-30.552 25.947,-24.557 26.563,-19.147C27.179,-13.736 29.534,-8.705 31.681,-3.7C33.829,1.304 35.832,6.558 35.682,12.001C35.532,17.444 31.216,25.2 26.17,27.246" style="fill:none;fill-rule:nonzero;stroke:black;stroke-width:1.37px;"/>
                </g>
                <g transform="matrix(2.92378,0,0,2.92378,736.596,59.8496)">
                    <path d="M0,9.058C4.707,4.319 12.303,3.99 18.844,5.339C25.386,6.688 31.691,9.4 38.364,9.674C45.038,9.95 56.325,5.497 58.269,-0.892" style="fill:none;fill-rule:nonzero;stroke:black;stroke-width:1.37px;"/>
                </g>
                <g transform="matrix(2.92378,0,0,2.92378,699.766,216.407)">
                    <path d="M0,-36.74C2.647,-30.721 3.194,-25.249 1.014,-19.047C-1.166,-12.844 -3.928,-6.559 -3.479,0" style="fill:none;fill-rule:nonzero;stroke:black;stroke-width:1.37px;"/>
                </g>
                <g transform="matrix(0.169438,2.91887,2.91887,-0.169438,732.6,161.728)">
                    <path d="M-22.508,-16.252C-10.878,-24.553 6.035,-24.554 17.664,-16.252" style="fill:none;fill-rule:nonzero;stroke:black;stroke-width:1.37px;"/>
                </g>
                <g transform="matrix(0.168109,2.91895,2.91895,-0.168109,776.586,426.375)">
                    <path d="M-24.471,-21.186C-9.417,-26.803 7.66,-26.804 22.714,-21.186" style="fill:none;fill-rule:nonzero;stroke:black;stroke-width:1.37px;"/>
                </g>
                <g transform="matrix(-0.828003,2.80409,2.80409,0.828003,746.113,467.098)">
                    <path d="M-36.277,-24.18C-19.689,-32.267 0.619,-32.267 17.206,-24.18" style="fill:none;fill-rule:nonzero;stroke:black;stroke-width:1.37px;"/>
                </g>
                <g transform="matrix(1.15655,2.68531,2.68531,-1.15655,918.526,360.758)">
                    <path d="M-16.601,-25.225C1.273,-17.496 20.4,-17.629 38.33,-25.225" style="fill:none;fill-rule:nonzero;stroke:black;stroke-width:1.37px;"/>
                </g>
                <g transform="matrix(2.92378,0,0,2.92378,834.905,496.176)">
                    <path d="M0,-42.862C5.055,-29.309 5.266,-14.465 5.283,0C5.276,-0.492 5.27,-0.983 5.262,-1.474" style="fill:none;fill-rule:nonzero;stroke:black;stroke-width:1.37px;"/>
                </g>
                <g transform="matrix(2.92378,0,0,2.92378,708.957,409.281)">
                    <path d="M0,-13.142C4.657,-6.828 11.862,-2.449 19.612,-1.225C27.362,0 35.566,-1.946 41.942,-6.518" style="fill:none;fill-rule:nonzero;stroke:black;stroke-width:1.37px;"/>
                </g>
                <g transform="matrix(-2.59501,-1.34701,-1.34701,2.59501,696.753,439.473)">
                    <path d="M-20.927,-21.686C-21.16,-17.379 -21.39,-13.071 -21.622,-8.764C-21.704,-7.241 -21.757,-5.603 -20.927,-4.323C-19.636,-2.337 -16.857,-2.09 -14.493,-2.234C-9.733,-2.523 -4.168,-3.891 0.276,-5.622" style="fill:none;fill-rule:nonzero;stroke:black;stroke-width:1.37px;"/>
                </g>
                <g transform="matrix(2.92378,0,0,2.92378,780.27,456.917)">
                    <path d="M0,-17.159C0.653,-14.096 3.801,-9.238 6.019,-6.424C8.236,-3.608 11.035,-0.844 14.594,-0.422C18.152,0 22.377,-4.182 23.065,-9.842" style="fill:none;fill-rule:nonzero;stroke:black;stroke-width:1.37px;"/>
                </g>
            </g>
        </g>
    </g>
</svg>
