<?xml version="1.0" encoding="UTF-8" standalone="no"?>
<!DOCTYPE svg PUBLIC "-//W3C//DTD SVG 1.1//EN" "http://www.w3.org/Graphics/SVG/1.1/DTD/svg11.dtd">
<svg width="100%" height="100%" viewBox="0 0 500 500" version="1.1" xmlns="http://www.w3.org/2000/svg" xmlns:xlink="http://www.w3.org/1999/xlink" xml:space="preserve" xmlns:serif="http://www.serif.com/" style="fill-rule:evenodd;clip-rule:evenodd;stroke-linecap:round;stroke-miterlimit:10;">
    <g transform="matrix(1,0,0,1,-984.735,-12.7913)">
        <g id="Eins" transform="matrix(1.0009,0,0,1.0009,451.046,11.6302)">
            <rect x="533.21" y="1.16" width="499.502" height="499.502" style="fill:none;"/>
            <clipPath id="_clip1">
                <rect x="533.21" y="1.16" width="499.502" height="499.502"/>
            </clipPath>
            <g clip-path="url(#_clip1)">
                <g transform="matrix(2.93895,0,0,2.93895,651.248,80.2008)">
                    <path d="M0,132.585C8.303,120.549 19.27,106.56 22.953,103.402C21.275,90.46 20.893,78.146 19.634,71.58C13.964,74.223 6.607,71.987 2.004,67.752C-2.599,63.517 -5.076,53.61 -1.169,48.725C2.737,43.839 10.27,41.416 14.025,46.418C12.966,40.459 8.913,24.54 10.889,15.981C14.024,2.404 46.61,-9.185 63.178,-0.012C77.609,7.978 89.555,31.249 85.407,54.512C84.359,60.387 82.358,66.184 78.823,70.991C75.288,75.799 68.02,80.94 62.147,82.001L63.454,104.137C74.312,112.006 83.912,121.604 91.806,132.442C94.63,136.32 91.854,141.77 87.057,141.77L4.837,141.77C0.116,141.77 -2.681,136.471 0,132.585" style="fill:rgb(76,175,64);fill-rule:nonzero;"/>
                </g>
                <g transform="matrix(2.93895,0,0,2.93895,918.049,255.519)">
                    <path d="M0,-19.817C2.242,-18.852 3.778,-16.612 4.296,-14.227C4.813,-11.841 4.415,-9.333 3.605,-7.03C2.35,-3.462 0.097,-0.249 -2.831,2.147C-4.135,3.215 -5.934,4.154 -7.436,3.389C-8.635,2.778 -9.114,1.329 -9.377,0.01C-10.438,-5.298 -9.648,-23.971 0,-19.817" style="fill:rgb(76,175,64);fill-rule:nonzero;"/>
                </g>
                <g transform="matrix(2.93895,0,0,2.93895,815.311,186.536)">
                    <path d="M0,-2.906C-0.161,-0.552 -0.252,1.905 0.698,4.064C1.647,6.223 3.956,7.969 6.267,7.495C8.132,7.112 9.501,5.379 9.947,3.527C10.393,1.676 10.069,-0.274 9.583,-2.115C8.977,-4.409 7.216,-10.383 4.2,-10.612C0.735,-10.875 0.159,-5.233 0,-2.906" style="fill-opacity:0.47;fill-rule:nonzero;"/>
                </g>
                <g transform="matrix(-0.608037,-2.87536,-2.87536,0.608037,761.072,168.484)">
                    <path d="M-2.216,-2.733C-4.481,-2.733 -6.317,-1.719 -6.316,-0.469C-6.317,0.782 -4.48,1.796 -2.216,1.796C0.049,1.796 1.885,0.782 1.884,-0.469C1.884,-1.72 0.049,-2.733 -2.216,-2.733" style="fill-rule:nonzero;"/>
                </g>
                <g transform="matrix(-0.206348,-2.93169,-2.93169,0.206348,861.404,158.761)">
                    <path d="M-2.259,-2.424C-4.523,-2.424 -6.359,-1.411 -6.36,-0.16C-6.36,1.091 -4.524,2.105 -2.259,2.105C0.005,2.105 1.841,1.092 1.842,-0.159C1.842,-1.41 0.006,-2.424 -2.259,-2.424" style="fill-rule:nonzero;"/>
                </g>
                <g transform="matrix(2.8077,0.868465,0.868465,-2.8077,774.934,233.499)">
                    <path d="M-0.687,-2.975C-0.687,-2.975 6.367,-8.663 19.202,-2.975" style="fill:none;fill-rule:nonzero;stroke:black;stroke-width:1.36px;"/>
                </g>
                <g transform="matrix(2.93895,0,0,2.93895,656.355,236.049)">
                    <path d="M0,2.454C-0.271,0.065 1.818,-2.16 4.186,-2.577C6.553,-2.994 8.988,-1.928 10.776,-0.322C12.565,1.284 13.823,3.383 15.054,5.448" style="fill:none;fill-rule:nonzero;stroke:black;stroke-width:1.36px;"/>
                </g>
                <g transform="matrix(2.11289,-2.04282,-2.04282,-2.11289,685.18,266.436)">
                    <path d="M-1.226,3.032C1.564,4.043 4.709,4.043 7.498,3.032" style="fill:none;fill-rule:nonzero;stroke:black;stroke-width:1.36px;"/>
                </g>
                <g transform="matrix(2.81934,0.8299,0.8299,-2.81934,728.648,277.363)">
                    <path d="M-1.343,-5.652C10.573,-12.635 24.102,-13.764 38.136,-5.652" style="fill:none;fill-rule:nonzero;stroke:black;stroke-width:1.36px;"/>
                </g>
                <g transform="matrix(-0.359946,2.91682,2.91682,0.359946,931.87,236.266)">
                    <path d="M-11.571,-10.83C-3.306,-9.202 1.432,-8.973 9.65,-10.83" style="fill:none;fill-rule:nonzero;stroke:black;stroke-width:1.36px;"/>
                </g>
                <g transform="matrix(2.93895,0,0,2.93895,713.313,496.819)">
                    <path d="M0,-47.43C5.041,-38.145 13.602,-31.408 21.201,-24.069C28.8,-16.729 35.606,-10.541 36.315,0" style="fill:none;fill-rule:nonzero;stroke:black;stroke-width:1.36px;"/>
                </g>
                <g transform="matrix(2.93895,0,0,2.93895,712.62,489.841)">
                    <path d="M0,-44.958C-2.607,-39.186 -5.237,-32.542 -2.694,-26.742C-1.549,-24.132 0.522,-22.06 2.547,-20.054C8.373,-14.283 14.199,-8.511 20.024,-2.74C21.357,-1.419 22.948,0 24.816,-0.16C26.965,-0.344 28.36,-2.551 28.891,-4.641C29.422,-6.731 29.468,-8.997 30.545,-10.865" style="fill:none;fill-rule:nonzero;stroke:black;stroke-width:1.36px;"/>
                </g>
                <g transform="matrix(2.93895,0,0,2.93895,837.393,494.739)">
                    <path d="M0,-43.19C6.326,-42.737 10.71,-39.152 14.126,-33.809C18.721,-26.624 22.199,-17.474 25.157,-8.878C26.076,-6.207 23.863,-3.503 21.065,-3.895C18.516,-4.251 15.968,-4.334 14.906,-4.045C13.029,-3.535 11.46,-2.056 10.772,-0.243C10.68,0 10.334,-0.023 10.293,-0.28C9.455,-5.438 5.739,-26.705 0,-36.248" style="fill:none;fill-rule:nonzero;stroke:black;stroke-width:1.36px;"/>
                </g>
                <g transform="matrix(2.93216,-0.199571,-0.199571,-2.93216,793.341,445.826)">
                    <path d="M0.074,0.725C7.822,-2.707 13.636,-2.398 21.515,0.725" style="fill:none;fill-rule:nonzero;stroke:black;stroke-width:1.36px;"/>
                </g>
                <g transform="matrix(2.7867,-0.933655,-0.933655,-2.7867,856.958,62.0893)">
                    <path d="M-4.704,-9.718C-0.385,-6.842 3.223,3.656 2.697,9.149C2.17,14.642 -0.877,18.964 -4.704,21.388C-14.449,27.562 -27.617,22.375 -38.78,15.567C-49.942,8.759 -61.209,0.138 -72.942,-0.7" style="fill:none;fill-rule:nonzero;stroke:black;stroke-width:1.36px;"/>
                </g>
                <g transform="matrix(2.93895,0,0,2.93895,835.434,46.4641)">
                    <path d="M0,18.805C-0.59,13.742 -3.073,8.921 -6.852,5.5C-10.63,2.078 -15.673,0.086 -20.77,0" style="fill:none;fill-rule:nonzero;stroke:black;stroke-width:1.36px;"/>
                </g>
                <g transform="matrix(2.93895,0,0,2.93895,803.776,65.1249)">
                    <path d="M0,14.848C-2.824,10.883 -5.729,6.836 -9.73,4.063C-13.731,1.291 -19.114,0 -23.535,2.038" style="fill:none;fill-rule:nonzero;stroke:black;stroke-width:1.36px;"/>
                </g>
                <g transform="matrix(0.00196427,-2.93894,-2.93894,-0.00196427,704.116,43.3065)">
                    <path d="M-23.592,-25.991C-19.869,-23.994 -18.233,-19.305 -18.692,-15.106C-19.151,-10.908 -21.306,-7.099 -23.592,-3.548C-25.878,0.004 -28.376,3.504 -29.668,7.526C-31.364,12.798 -30.78,18.762 -28.096,23.606" style="fill:none;fill-rule:nonzero;stroke:black;stroke-width:1.36px;"/>
                </g>
                <g transform="matrix(2.93895,0,0,2.93895,764.951,219.443)">
                    <path d="M0,-39.163C-3.207,-33.153 -8.413,-28.231 -14.594,-25.367C-16.992,-24.256 -19.699,-23.309 -21.118,-21.081C-22.424,-19.031 -22.291,-16.366 -21.633,-14.026C-20.975,-11.686 -19.85,-9.494 -19.271,-7.133C-18.794,-5.188 -18.786,-2.899 -20.167,-1.45C-21.549,0 -24.611,-0.399 -24.913,-2.379" style="fill:none;fill-rule:nonzero;stroke:black;stroke-width:1.36px;"/>
                </g>
            </g>
        </g>
    </g>
</svg>
