<?xml version="1.0" encoding="UTF-8" standalone="no"?>
<!DOCTYPE svg PUBLIC "-//W3C//DTD SVG 1.1//EN" "http://www.w3.org/Graphics/SVG/1.1/DTD/svg11.dtd">
<svg width="100%" height="100%" viewBox="0 0 500 500" version="1.1" xmlns="http://www.w3.org/2000/svg" xmlns:xlink="http://www.w3.org/1999/xlink" xml:space="preserve" xmlns:serif="http://www.serif.com/" style="fill-rule:evenodd;clip-rule:evenodd;stroke-linecap:round;stroke-miterlimit:10;">
    <g transform="matrix(1,0,0,1,-1468.66,-645.815)">
        <g id="Fünf" transform="matrix(1.0009,0,0,1.0009,934.969,644.654)">
            <rect x="533.21" y="1.16" width="499.502" height="499.502" style="fill:none;"/>
            <clipPath id="_clip1">
                <rect x="533.21" y="1.16" width="499.502" height="499.502"/>
            </clipPath>
            <g clip-path="url(#_clip1)">
                <g transform="matrix(3.1369,0,0,3.1369,636.325,51.5717)">
                    <path d="M0,132.584C8.303,120.549 19.271,106.559 22.954,103.401C21.275,90.459 20.893,78.146 19.634,71.58C13.965,74.223 6.608,71.986 2.005,67.751C-2.599,63.516 -5.075,53.609 -1.169,48.724C2.737,43.839 10.27,41.415 14.025,46.417C12.531,40.291 8.913,24.539 10.89,15.98C14.024,2.403 46.61,-9.186 63.179,-0.013C77.609,7.978 89.556,31.248 85.407,54.512C84.359,60.387 82.358,66.183 78.823,70.99C75.288,75.799 68.02,80.939 62.147,82.001L63.454,104.136C74.312,112.005 83.912,121.603 91.807,132.442C94.631,136.319 91.854,141.77 87.058,141.77L4.838,141.77C0.116,141.77 -2.681,136.471 0,132.584" style="fill:rgb(76,175,64);fill-rule:nonzero;"/>
                </g>
                <g transform="matrix(3.1369,0,0,3.1369,921.097,238.697)">
                    <path d="M0,-19.817C2.242,-18.851 3.778,-16.613 4.296,-14.227C4.813,-11.841 4.415,-9.333 3.605,-7.03C2.35,-3.462 0.098,-0.25 -2.83,2.147C-4.135,3.215 -5.934,4.154 -7.436,3.388C-8.635,2.778 -9.113,1.329 -9.377,0.009C-10.438,-5.298 -9.648,-23.971 0,-19.817" style="fill:rgb(76,175,64);fill-rule:nonzero;"/>
                </g>
                <g transform="matrix(3.1369,0,0,3.1369,811.44,165.069)">
                    <path d="M0,-2.907C-0.161,-0.553 -0.252,1.904 0.697,4.063C1.647,6.222 3.956,7.969 6.267,7.494C8.132,7.112 9.501,5.378 9.947,3.527C10.393,1.675 10.069,-0.274 9.582,-2.116C8.977,-4.41 7.216,-10.384 4.2,-10.612C0.735,-10.876 0.158,-5.233 0,-2.907" style="fill-opacity:0.47;fill-rule:nonzero;"/>
                </g>
                <g transform="matrix(-0.648992,-3.06903,-3.06903,0.648992,753.548,145.798)">
                    <path d="M-2.216,-2.733C-4.481,-2.733 -6.317,-1.719 -6.316,-0.468C-6.317,0.782 -4.481,1.796 -2.216,1.796C0.048,1.796 1.884,0.782 1.884,-0.469C1.884,-1.72 0.049,-2.733 -2.216,-2.733" style="fill-rule:nonzero;"/>
                </g>
                <g transform="matrix(-0.220246,-3.12916,-3.12916,0.220246,860.639,135.42)">
                    <path d="M-2.259,-2.423C-4.524,-2.423 -6.359,-1.41 -6.36,-0.159C-6.36,1.092 -4.524,2.105 -2.259,2.106C0.005,2.106 1.841,1.093 1.842,-0.158C1.842,-1.409 0.006,-2.423 -2.259,-2.423" style="fill-rule:nonzero;"/>
                </g>
                <g transform="matrix(2.99681,0.926961,0.926961,-2.99681,768.344,215.194)">
                    <path d="M-0.687,-2.975C-0.687,-2.975 6.367,-8.663 19.202,-2.975" style="fill:none;fill-rule:nonzero;stroke:black;stroke-width:1.27px;"/>
                </g>
                <g transform="matrix(3.1369,0,0,3.1369,641.778,217.917)">
                    <path d="M0,2.453C-0.271,0.065 1.818,-2.16 4.186,-2.577C6.553,-2.994 8.987,-1.928 10.776,-0.322C12.565,1.283 13.823,3.382 15.053,5.447" style="fill:none;fill-rule:nonzero;stroke:black;stroke-width:1.27px;"/>
                </g>
                <g transform="matrix(2.2552,-2.18041,-2.18041,-2.2552,672.542,250.349)">
                    <path d="M-1.226,3.032C1.565,4.042 4.709,4.043 7.498,3.032" style="fill:none;fill-rule:nonzero;stroke:black;stroke-width:1.27px;"/>
                </g>
                <g transform="matrix(3.00924,0.885799,0.885799,-3.00924,718.94,262.012)">
                    <path d="M-1.343,-5.652C10.573,-12.634 24.102,-13.764 38.136,-5.652" style="fill:none;fill-rule:nonzero;stroke:black;stroke-width:1.27px;"/>
                </g>
                <g transform="matrix(-0.384044,3.1133,3.1133,0.384044,935.85,218.142)">
                    <path d="M-11.57,-10.83C-3.305,-9.202 1.434,-8.972 9.65,-10.83" style="fill:none;fill-rule:nonzero;stroke:black;stroke-width:1.27px;"/>
                </g>
                <g transform="matrix(0,3.1369,3.1369,0,689.353,288.49)">
                    <path d="M-4.374,-4.374L4.374,-4.374" style="fill:none;fill-rule:nonzero;stroke:black;stroke-width:1.27px;"/>
                </g>
                <g transform="matrix(3.1369,0,0,3.1369,676.29,322.157)">
                    <path d="M0,-5.255C1.679,-4.237 1.76,-1.409 0.143,-0.297C-1.475,0.815 -4.087,-0.275 -4.435,-2.206C-4.783,-4.139 -2.715,-6.07 -0.811,-5.593" style="fill:none;fill-rule:nonzero;stroke:black;stroke-width:1.27px;"/>
                </g>
                <g transform="matrix(0,3.1369,3.1369,0,920.922,256.8)">
                    <path d="M-4.374,-4.374L4.374,-4.374" style="fill:none;fill-rule:nonzero;stroke:black;stroke-width:1.27px;"/>
                </g>
                <g transform="matrix(3.1369,0,0,3.1369,907.857,290.467)">
                    <path d="M0,-5.255C1.679,-4.237 1.761,-1.408 0.143,-0.297C-1.475,0.815 -4.087,-0.275 -4.435,-2.206C-4.782,-4.139 -2.715,-6.07 -0.811,-5.593" style="fill:none;fill-rule:nonzero;stroke:black;stroke-width:1.27px;"/>
                </g>
                <g transform="matrix(3.1369,0,0,3.1369,688.334,283.136)">
                    <path d="M0,-66.297C0.937,-70.49 2.229,-76.77 4.533,-80.397C6.836,-84.025 10.77,-86.922 15.064,-86.783C19.015,-86.655 22.509,-84.066 26.434,-83.596C34.232,-82.663 41.525,-90.19 49.151,-88.31C55.499,-86.746 58.682,-79.469 64.455,-76.4C71.766,-72.511 82.903,-75.363 87.177,-68.271C91.29,-61.444 84.296,-52.375 87.012,-44.883C89.201,-38.849 97.116,-35.676 97.751,-29.288C98.458,-22.193 89.636,-17.381 88.91,-10.287C88.59,-7.167 89.911,-4.15 90.907,-1.176C91.902,1.799 92.553,5.216 91.022,7.953C89.491,10.69 84.921,11.641 83.308,8.95C83.11,15.574 75.569,20.861 69.274,18.789C69.519,21.799 65.967,23.893 62.961,23.604C59.956,23.315 57.339,21.53 54.566,20.335C51.792,19.14 49.277,17.404 47.004,19.393" style="fill:none;fill-rule:nonzero;stroke:black;stroke-width:1.27px;"/>
                </g>
                <g transform="matrix(3.1369,0,0,3.1369,688.334,363.497)">
                    <path d="M0,-91.915C-6.74,-94.269 -15.75,-89.097 -14.699,-82.034C-14.336,-79.594 -13.113,-77.123 -13.859,-74.77C-15.45,-69.76 -23.959,-70.262 -25.905,-65.377C-27.461,-61.473 -23.559,-57.162 -24.527,-53.072C-25.965,-46.996 -36.408,-46.542 -37.39,-40.377C-38.208,-35.238 -31.607,-32.037 -30.069,-27.067C-28.203,-21.035 -33.982,-13.253 -29.504,-8.803C-26.444,-5.762 -21.295,-7.37 -17.073,-6.48C-12.631,-5.543 -9.372,-1.82 -5.34,0.267C-1.309,2.354 3.327,-0.713 4.108,-5.186" style="fill:none;fill-rule:nonzero;stroke:black;stroke-width:1.27px;"/>
                </g>
                <g transform="matrix(3.1369,0,0,3.1369,691.446,137.951)">
                    <path d="M0,-21.014C0.354,-17.205 4.638,-14.853 8.461,-14.934C12.286,-15.016 15.84,-16.774 19.488,-17.921C23.137,-19.07 27.426,-19.52 30.522,-17.274C33.689,-14.975 35.283,-10.129 39.179,-9.767C43.095,-9.403 45.732,-14.005 49.571,-14.862C54.094,-15.871 57.841,-11.529 60.582,-7.791C63.321,-4.053 67.629,0 71.926,-1.736" style="fill:none;fill-rule:nonzero;stroke:black;stroke-width:1.27px;"/>
                </g>
                <g transform="matrix(3.1369,0,0,3.1369,688.334,197.179)">
                    <path d="M0,-38.895C1.486,-36.284 2.986,-33.637 3.701,-30.795C4.417,-27.953 4.271,-24.846 2.608,-22.399C1.724,-21.099 0.415,-19.96 0.128,-18.45C-0.33,-16.03 1.962,-13.902 3.025,-11.6C4.131,-9.207 3.847,-6.369 2.289,-4.249C0.731,-2.131 0.322,-0.012 -2.554,0" style="fill:none;fill-rule:nonzero;stroke:black;stroke-width:1.27px;"/>
                </g>
                <g transform="matrix(3.12472,-0.276192,-0.276192,-3.12472,727.652,459.604)">
                    <path d="M-0.032,1.614C12.426,-0.346 36.677,1.584 36.187,1.614" style="fill:none;fill-rule:nonzero;stroke:black;stroke-width:1.27px;"/>
                </g>
                <g transform="matrix(2.25557,2.18004,2.18004,-2.25557,727.812,388.702)">
                    <path d="M-5.542,-13.71C7.915,-15.639 20.453,-15.64 33.911,-13.71" style="fill:none;fill-rule:nonzero;stroke:black;stroke-width:1.27px;"/>
                </g>
                <g transform="matrix(3.1369,0,0,3.1369,660.085,494.54)">
                    <path d="M0,-15.965C0.308,-15.951 4.43,-9.445 9.321,-8.155C7.323,-5.217 10.907,0 13.114,-0.079" style="fill:none;fill-rule:nonzero;stroke:black;stroke-width:1.27px;"/>
                </g>
                <g transform="matrix(-0.743907,3.04742,3.04742,0.743907,883.512,466.344)">
                    <path d="M-19.516,-15.325C-7.913,-15.181 0.431,-15.469 12.034,-15.325" style="fill:none;fill-rule:nonzero;stroke:black;stroke-width:1.27px;"/>
                </g>
                <g transform="matrix(3.1369,0,0,3.1369,890.558,494.29)">
                    <path d="M0,-19.604C-0.704,-14.486 -2.578,-11.855 -6.065,-8.044C-4.684,-5.632 -4.146,-2.747 -4.568,0" style="fill:none;fill-rule:nonzero;stroke:black;stroke-width:1.27px;"/>
                </g>
            </g>
        </g>
    </g>
</svg>
