<?xml version="1.0" encoding="UTF-8" standalone="no"?>
<!DOCTYPE svg PUBLIC "-//W3C//DTD SVG 1.1//EN" "http://www.w3.org/Graphics/SVG/1.1/DTD/svg11.dtd">
<svg width="100%" height="100%" viewBox="0 0 500 500" version="1.1" xmlns="http://www.w3.org/2000/svg" xmlns:xlink="http://www.w3.org/1999/xlink" xml:space="preserve" xmlns:serif="http://www.serif.com/" style="fill-rule:evenodd;clip-rule:evenodd;stroke-linecap:round;stroke-miterlimit:10;">
    <g transform="matrix(1,0,0,1,-889.258,-598.73)">
        <g id="Vier" transform="matrix(1.0009,0,0,1.0009,355.569,597.569)">
            <rect x="533.21" y="1.16" width="499.502" height="499.502" style="fill:none;"/>
            <clipPath id="_clip1">
                <rect x="533.21" y="1.16" width="499.502" height="499.502"/>
            </clipPath>
            <g clip-path="url(#_clip1)">
                <g transform="matrix(3.32347,0,0,3.32347,628.517,25.1395)">
                    <path d="M0,132.584C8.303,120.549 19.27,106.559 22.953,103.401C21.275,90.459 20.893,78.146 19.634,71.58C13.964,74.223 6.607,71.986 2.004,67.751C-2.599,63.516 -5.076,53.609 -1.169,48.724C2.737,43.839 10.27,41.415 14.025,46.417C13.579,40.291 8.913,24.539 10.889,15.98C14.024,2.403 46.61,-9.186 63.178,-0.013C77.609,7.978 89.555,31.248 85.407,54.512C84.359,60.387 82.358,66.183 78.823,70.99C75.288,75.799 68.02,80.939 62.147,82.001L63.454,104.136C74.312,112.005 83.912,121.603 91.806,132.442C94.63,136.319 91.854,141.77 87.057,141.77L4.837,141.77C0.116,141.77 -2.681,136.471 0,132.584" style="fill:rgb(76,175,64);fill-rule:nonzero;"/>
                </g>
                <g transform="matrix(3.32347,0,0,3.32347,930.226,223.394)">
                    <path d="M0,-19.817C2.242,-18.851 3.778,-16.613 4.296,-14.227C4.813,-11.841 4.415,-9.333 3.605,-7.03C2.35,-3.462 0.097,-0.25 -2.831,2.147C-4.135,3.215 -5.934,4.154 -7.436,3.388C-8.635,2.778 -9.114,1.329 -9.377,0.009C-10.438,-5.298 -9.648,-23.971 0,-19.817" style="fill:rgb(76,175,64);fill-rule:nonzero;"/>
                </g>
                <g transform="matrix(3.32347,0,0,3.32347,814.045,145.387)">
                    <path d="M0,-2.907C-0.161,-0.553 -0.252,1.904 0.698,4.063C1.647,6.222 3.956,7.969 6.267,7.494C8.132,7.112 9.501,5.378 9.947,3.527C10.393,1.675 10.069,-0.274 9.583,-2.116C8.977,-4.41 7.216,-10.384 4.2,-10.612C0.735,-10.876 0.159,-5.233 0,-2.907" style="fill-opacity:0.47;fill-rule:nonzero;"/>
                </g>
                <g transform="matrix(-0.687591,-3.25156,-3.25156,0.687591,752.71,124.97)">
                    <path d="M-2.216,-2.733C-4.481,-2.733 -6.317,-1.719 -6.316,-0.469C-6.317,0.782 -4.481,1.796 -2.216,1.796C0.048,1.796 1.884,0.782 1.884,-0.469C1.884,-1.72 0.049,-2.733 -2.216,-2.733" style="fill-rule:nonzero;"/>
                </g>
                <g transform="matrix(-0.233345,-3.31527,-3.31527,0.233345,866.172,113.975)">
                    <path d="M-2.259,-2.423C-4.524,-2.423 -6.359,-1.41 -6.36,-0.159C-6.36,1.092 -4.524,2.106 -2.259,2.106C0.005,2.106 1.841,1.093 1.842,-0.158C1.842,-1.409 0.006,-2.423 -2.259,-2.423" style="fill-rule:nonzero;"/>
                </g>
                <g transform="matrix(3.17505,0.982093,0.982093,-3.17505,768.386,198.493)">
                    <path d="M-0.687,-2.975C-0.687,-2.975 6.367,-8.663 19.202,-2.975" style="fill:none;fill-rule:nonzero;stroke:black;stroke-width:1.2px;"/>
                </g>
                <g transform="matrix(3.32347,0,0,3.32347,634.292,201.378)">
                    <path d="M0,2.453C-0.271,0.065 1.818,-2.16 4.186,-2.577C6.553,-2.994 8.988,-1.928 10.776,-0.322C12.565,1.283 13.823,3.382 15.054,5.447" style="fill:none;fill-rule:nonzero;stroke:black;stroke-width:1.2px;"/>
                </g>
                <g transform="matrix(2.38933,-2.31009,-2.31009,-2.38933,666.888,235.74)">
                    <path d="M-1.226,3.032C1.564,4.043 4.709,4.043 7.498,3.032" style="fill:none;fill-rule:nonzero;stroke:black;stroke-width:1.2px;"/>
                </g>
                <g transform="matrix(3.18821,0.938482,0.938482,-3.18821,716.044,248.095)">
                    <path d="M-1.343,-5.652C10.573,-12.634 24.102,-13.764 38.136,-5.652" style="fill:none;fill-rule:nonzero;stroke:black;stroke-width:1.2px;"/>
                </g>
                <g transform="matrix(-0.40704,3.29845,3.29845,0.40704,945.855,201.62)">
                    <path d="M-11.571,-10.83C-3.306,-9.202 1.433,-8.973 9.65,-10.83" style="fill:none;fill-rule:nonzero;stroke:black;stroke-width:1.2px;"/>
                </g>
                <g transform="matrix(3.32347,0,0,3.32347,674.622,287.977)">
                    <path d="M0,-32.681C17.784,-41.928 29.734,-62.853 35.149,-82.444C35.473,-83.615 34.428,-84.714 33.236,-84.474C26.153,-83.043 19.068,-81.452 12.464,-78.527C5.057,-75.245 -1.8,-70.101 -5.68,-62.94C-8.584,-57.579 -9.664,-51.438 -10.703,-45.419C-14.807,-21.633 -18.912,2.153 -23.016,25.939C-23.905,31.089 -24.79,36.411 -23.59,41.497C-22.39,46.582 -18.539,51.413 -13.393,52.033" style="fill:none;fill-rule:nonzero;stroke:black;stroke-width:1.2px;"/>
                </g>
                <g transform="matrix(3.32347,0,0,3.32347,897.143,-10.3452)">
                    <path d="M0,28.009C-0.373,20.781 -4.684,13.768 -11.461,9.363C-16.665,5.98 -36.953,0 -30.083,11.556C-25.316,19.572 -9.482,25.577 0,28.009Z" style="fill:none;fill-rule:nonzero;stroke:black;stroke-width:1.2px;"/>
                </g>
                <g transform="matrix(3.32347,0,0,3.32347,896.572,490.268)">
                    <path d="M0,-67.825C3.953,-59.911 7.88,-56.581 12.486,-49.028C17.093,-41.474 21.131,-33.346 22.285,-24.574C23.439,-15.803 21.33,-6.244 15.063,0" style="fill:none;fill-rule:nonzero;stroke:black;stroke-width:1.2px;"/>
                </g>
                <g transform="matrix(3.32347,0,0,3.32347,673.645,484.538)">
                    <path d="M0,-22.131C5.503,-10.424 34.478,1.394 37.256,1.084C40.257,0.748 42.885,-1.037 45.241,-2.928C52.409,-8.682 57.512,-15.353 61.722,-23.525" style="fill:none;fill-rule:nonzero;stroke:black;stroke-width:1.2px;"/>
                </g>
                <g transform="matrix(3.32347,0,0,3.32347,796.821,177.338)">
                    <path d="M0,-23.169C1.532,-20.195 0.242,-11.685 -0.26,-8.378C-0.802,-4.81 -1.982,-1.146 -4.646,1.29C-7.968,4.327 -13.145,4.812 -17.311,3.111C-21.478,1.41 -24.669,-2.187 -26.633,-6.235C-28.189,-9.446 -31.156,-16.583 -29.015,-19.619C-26.973,-22.513 -2.479,-27.981 0,-23.169Z" style="fill:none;fill-rule:nonzero;stroke:black;stroke-width:1.2px;"/>
                </g>
                <g transform="matrix(3.32347,0,0,3.32347,944.428,172.006)">
                    <path d="M0,-19.972C0.627,-16.853 -2.628,-8.903 -3.895,-5.815C-5.261,-2.483 -7.22,0.832 -10.195,2.71C-13.905,5.05 -18.635,4.62 -21.924,2.265C-25.213,-0.089 -27.164,-4.095 -27.91,-8.324C-28.5,-11.676 -29.375,-19.043 -26.716,-21.587C-24.182,-24.012 -1.016,-25.022 0,-19.972Z" style="fill:none;fill-rule:nonzero;stroke:black;stroke-width:1.2px;"/>
                </g>
                <g transform="matrix(3.30561,-0.344053,-0.344053,-3.30561,800.267,124.862)">
                    <path d="M-0.267,0.802C3.769,5.605 10.97,5.606 15.005,0.802" style="fill:none;fill-rule:nonzero;stroke:black;stroke-width:1.2px;"/>
                </g>
            </g>
        </g>
    </g>
</svg>
