<?xml version="1.0" encoding="UTF-8" standalone="no"?>
<!DOCTYPE svg PUBLIC "-//W3C//DTD SVG 1.1//EN" "http://www.w3.org/Graphics/SVG/1.1/DTD/svg11.dtd">
<svg width="100%" height="100%" viewBox="0 0 500 500" version="1.1" xmlns="http://www.w3.org/2000/svg" xmlns:xlink="http://www.w3.org/1999/xlink" xml:space="preserve" xmlns:serif="http://www.serif.com/" style="fill-rule:evenodd;clip-rule:evenodd;stroke-linecap:round;stroke-miterlimit:10;">
    <g transform="matrix(1,0,0,1,-1548.68,0)">
        <g id="Zwei" transform="matrix(1.0009,0,0,1.0009,1014.99,-1.16104)">
            <rect x="533.21" y="1.16" width="499.502" height="499.502" style="fill:none;"/>
            <clipPath id="_clip1">
                <rect x="533.21" y="1.16" width="499.502" height="499.502"/>
            </clipPath>
            <g clip-path="url(#_clip1)">
                <g transform="matrix(3.14942,0,0,3.14942,637.771,49.751)">
                    <path d="M0,132.585C8.303,120.549 19.271,106.56 22.953,103.402C21.274,90.46 20.893,78.146 19.634,71.58C13.965,74.223 6.607,71.987 2.004,67.752C-2.599,63.517 -5.076,53.61 -1.17,48.725C2.737,43.839 10.27,41.416 14.025,46.418C12.966,40.459 8.913,24.54 10.889,15.981C14.024,2.404 46.61,-9.185 63.178,-0.012C77.609,7.978 89.555,31.249 85.406,54.512C84.359,60.387 82.357,66.184 78.822,70.991C75.287,75.799 68.02,80.94 62.147,82.001L63.454,104.137C74.312,112.006 83.912,121.604 91.806,132.442C94.63,136.32 91.854,141.77 87.057,141.77L4.838,141.77C0.116,141.77 -2.682,136.471 0,132.585" style="fill:rgb(76,175,64);fill-rule:nonzero;"/>
                </g>
                <g transform="matrix(3.14942,0,0,3.14942,923.679,237.625)">
                    <path d="M0,-19.817C2.242,-18.852 3.778,-16.612 4.296,-14.227C4.813,-11.841 4.415,-9.333 3.604,-7.03C2.35,-3.462 0.097,-0.249 -2.83,2.147C-4.135,3.215 -5.934,4.154 -7.436,3.389C-8.636,2.778 -9.114,1.329 -9.378,0.01C-10.438,-5.298 -9.648,-23.971 0,-19.817" style="fill:rgb(76,175,64);fill-rule:nonzero;"/>
                </g>
                <g transform="matrix(3.14942,0,0,3.14942,813.581,163.702)">
                    <path d="M0,-2.906C-0.161,-0.552 -0.252,1.905 0.698,4.064C1.648,6.223 3.956,7.969 6.267,7.495C8.133,7.112 9.502,5.379 9.947,3.527C10.393,1.676 10.069,-0.274 9.583,-2.115C8.977,-4.409 7.217,-10.383 4.201,-10.612C0.736,-10.875 0.159,-5.233 0,-2.906" style="fill-opacity:0.47;fill-rule:nonzero;"/>
                </g>
                <g transform="matrix(-0.651581,-3.08128,-3.08128,0.651581,755.463,144.36)">
                    <path d="M-2.215,-2.733C-4.48,-2.733 -6.316,-1.718 -6.315,-0.468C-6.315,0.783 -4.479,1.796 -2.215,1.796C0.05,1.796 1.886,0.782 1.885,-0.469C1.886,-1.719 0.05,-2.733 -2.215,-2.733" style="fill-rule:nonzero;"/>
                </g>
                <g transform="matrix(-0.221076,-3.14165,-3.14165,0.221076,862.976,133.936)">
                    <path d="M-2.259,-2.425C-4.524,-2.425 -6.36,-1.41 -6.36,-0.16C-6.36,1.091 -4.525,2.104 -2.259,2.106C0.005,2.106 1.841,1.091 1.841,-0.159C1.841,-1.41 0.006,-2.425 -2.259,-2.425" style="fill-rule:nonzero;"/>
                </g>
                <g transform="matrix(3.00876,0.930705,0.930705,-3.00876,770.317,214.028)">
                    <path d="M-0.687,-2.975C-0.687,-2.975 6.366,-8.663 19.201,-2.975" style="fill:none;fill-rule:nonzero;stroke:black;stroke-width:1.27px;"/>
                </g>
                <g transform="matrix(3.14942,0,0,3.14942,643.242,216.76)">
                    <path d="M0,2.454C-0.271,0.065 1.818,-2.16 4.187,-2.577C6.554,-2.994 8.988,-1.928 10.776,-0.322C12.565,1.284 13.823,3.383 15.054,5.448" style="fill:none;fill-rule:nonzero;stroke:black;stroke-width:1.27px;"/>
                </g>
                <g transform="matrix(2.2642,-2.18911,-2.18911,-2.2642,674.133,249.324)">
                    <path d="M-1.226,3.032C1.564,4.043 4.708,4.044 7.498,3.032" style="fill:none;fill-rule:nonzero;stroke:black;stroke-width:1.27px;"/>
                </g>
                <g transform="matrix(3.02124,0.889333,0.889333,-3.02124,720.714,261.032)">
                    <path d="M-1.343,-5.652C10.573,-12.635 24.102,-13.764 38.136,-5.652" style="fill:none;fill-rule:nonzero;stroke:black;stroke-width:1.27px;"/>
                </g>
                <g transform="matrix(-0.385723,3.12571,3.12571,0.385723,938.489,216.992)">
                    <path d="M-11.571,-10.83C-3.306,-9.202 1.432,-8.973 9.65,-10.83" style="fill:none;fill-rule:nonzero;stroke:black;stroke-width:1.27px;"/>
                </g>
                <g transform="matrix(3.14942,0,0,3.14942,803.343,211.697)">
                    <path d="M0,-8.305C-2.544,-6.732 -9.276,-1.315 -7.811,0.76C-6.844,2.129 -4.909,2.285 -3.233,2.312C1.883,2.393 7,2.474 12.116,2.556C15.188,2.605 19.104,2.058 19.896,-0.91C20.617,-3.618 18.036,-6.002 15.66,-7.487C13.301,-8.961 10.766,-10.314 7.999,-10.612C5.232,-10.91 1.77,-9.4 0,-8.305Z" style="fill:none;fill-rule:nonzero;stroke:black;stroke-width:1.27px;"/>
                </g>
                <g transform="matrix(0.427173,-3.12031,-3.12031,-0.427173,829.472,205.602)">
                    <path d="M-5.212,6.21C-1.639,4.775 3.256,5.808 7.086,6.21" style="fill:none;fill-rule:nonzero;stroke:black;stroke-width:1.27px;"/>
                </g>
                <g transform="matrix(0,-3.14942,-3.14942,0,850.402,202.54)">
                    <path d="M-5.539,6.319C-2.321,5.539 3.101,5.539 6.319,6.319" style="fill:none;fill-rule:nonzero;stroke:black;stroke-width:1.27px;"/>
                </g>
                <g transform="matrix(-0.811413,-3.0431,-3.0431,0.811413,864.801,192.056)">
                    <path d="M-6.678,5.13C-3.901,4.469 1.165,4.47 3.942,5.13" style="fill:none;fill-rule:nonzero;stroke:black;stroke-width:1.27px;"/>
                </g>
                <g transform="matrix(3.14942,0,0,3.14942,694.445,181.143)">
                    <path d="M0,-13.111C1.947,-10.974 3.488,-8.478 4.187,-5.673C5.437,-0.647 4.707,4.435 3.978,9.448C-0.593,9.891 -4.418,5.949 -6.555,1.884C-10.006,-4.681 -10.677,-15.421 -7.861,-22.618C-7.749,-22.905 -7.374,-23.002 -7.145,-22.797C-4.62,-20.539 -2.467,-15.818 0,-13.111Z" style="fill:none;fill-rule:nonzero;stroke:black;stroke-width:1.27px;"/>
                </g>
                <g transform="matrix(3.14942,0,0,3.14942,771.695,29.2742)">
                    <path d="M0,8.601C0.928,9.619 1.505,10.906 2.356,11.989C5.236,15.649 11.186,16.125 14.896,13.311C18.608,10.497 19.85,5.051 18.167,0.708C16.484,-3.635 12.232,-6.733 7.643,-7.524C9.313,-6.082 9.247,-3.288 7.938,-1.51C6.631,0.268 4.423,1.168 2.247,1.543C0.072,1.919 -2.156,1.854 -4.344,2.147C-7.05,2.509 -13.217,5.185 -14.385,7.553C-11.419,10.204 -3.587,4.665 0,8.601Z" style="fill:none;fill-rule:nonzero;stroke:black;stroke-width:1.27px;"/>
                </g>
                <g transform="matrix(3.14942,0,0,3.14942,763.163,442.182)">
                    <path d="M0,-6.139C-0.451,-1.415 5.774,2.094 10.459,1.337C15.144,0.58 19.759,-3.891 17.842,-8.233" style="fill:none;fill-rule:nonzero;stroke:black;stroke-width:1.27px;"/>
                </g>
                <g transform="matrix(-0.233879,3.14072,3.14072,0.233879,807.741,476.734)">
                    <path d="M-8.295,-7.111C-8.295,-7.111 1.677,-8.067 6.558,-7.111" style="fill:none;fill-rule:nonzero;stroke:black;stroke-width:1.27px;"/>
                </g>
                <g transform="matrix(1.16523,2.92593,2.92593,-1.16523,830.882,451.706)">
                    <path d="M-5.44,-8.021C1.194,-8.022 5.195,-8.021 11.829,-8.021" style="fill:none;fill-rule:nonzero;stroke:black;stroke-width:1.27px;"/>
                </g>
                <g transform="matrix(3.14942,0,0,3.14942,834.087,416.255)">
                    <path d="M0,-22.352L-15.943,-9.283C-12.788,-5.488 -9.375,-1.514 -4.678,0C2.221,-2.979 7.111,-7.036 9.757,-11.176" style="fill:none;fill-rule:nonzero;stroke:black;stroke-width:1.27px;"/>
                </g>
                <g transform="matrix(3.14942,0,0,3.14942,691.111,377.666)">
                    <path d="M0,4.829C-0.133,-0.681 3.908,-11.366 4.497,-13.41C4.558,-13.62 4.766,-13.594 4.963,-13.501C9.356,-11.419 27.982,1.09 28.639,1.898C30.287,3.928 29.086,5.599 27.971,7.017C26.088,9.412 23.232,14.047 21.35,16.442C20.681,17.293 19.896,18.211 18.819,18.329C17.729,18.449 16.754,17.701 15.912,16.996C11.642,13.418 0.015,5.408 0,4.829Z" style="fill:none;fill-rule:nonzero;stroke:black;stroke-width:1.27px;"/>
                </g>
                <g transform="matrix(2.07126,2.37249,2.37249,-2.07126,852.604,340.31)">
                    <path d="M-2.539,-5.588C3.369,-3.144 9.634,-3.617 12.296,-5.588" style="fill:none;fill-rule:nonzero;stroke:black;stroke-width:1.27px;"/>
                </g>
            </g>
        </g>
    </g>
</svg>
